<svg width="319" height="237" fill="none" xmlns="http://www.w3.org/2000/svg"><path fill-rule="evenodd" clip-rule="evenodd" d="M176.015 194.03c-9.732 6.935-21.639 11.014-34.499 11.014-32.87 0-59.516-26.649-59.516-59.522S108.646 86 141.516 86s59.516 26.649 59.516 59.522c0 12.861-4.079 24.77-11.013 34.503l39.104 39.108a9.759 9.759 0 01-.002 13.84l-.164.164c-3.812 3.812-10.017 3.822-13.838.001l-39.104-39.108zm-34.499-2.991c25.136 0 45.512-20.379 45.512-45.517s-20.376-45.517-45.512-45.517-45.512 20.379-45.512 45.517 20.376 45.517 45.512 45.517z" fill="#EEE"/><path d="M180.019 180.025l-.815-.581-.491.69.599.598.707-.707zm39.104 39.108l-.707.707.707-.707zm-.002 13.84l-.707-.708v.001l.707.707zm-.164.164l.708.707-.708-.707zm-13.838.001l.707-.707-.707.707zm-39.684-39.922c-9.568 6.818-21.274 10.828-33.919 10.828v2c13.075 0 25.184-4.148 35.079-11.2l-1.16-1.628zm-33.919 10.828C99.199 204.044 73 177.843 73 145.522h-2c0 33.425 27.094 60.522 60.516 60.522v-2zM73 145.522C73 113.201 99.199 87 131.516 87v-2C98.094 85 71 112.097 71 145.522h2zM131.516 87c32.317 0 58.516 26.201 58.516 58.522h2c0-33.425-27.094-60.522-60.516-60.522v2zm58.516 58.522c0 12.647-4.01 24.354-10.828 33.922l1.629 1.161c7.051-9.897 11.199-22.007 11.199-35.083h-2zm-10.72 35.21l39.104 39.108 1.414-1.414-39.104-39.108-1.414 1.414zm39.104 39.108a8.758 8.758 0 01-.002 12.425l1.415 1.415a10.759 10.759 0 00.001-15.254l-1.414 1.414zm-.002 12.426l-.164.164 1.415 1.414.164-.164-1.415-1.414zm-.164.164c-3.422 3.422-8.994 3.431-12.424.001l-1.414 1.414c4.212 4.213 11.051 4.201 15.253-.001l-1.415-1.414zm-12.424.001l-39.104-39.108-1.414 1.414 39.104 39.108 1.414-1.414zm-74.31-40.392c25.688 0 46.512-20.826 46.512-46.517h-2c0 24.586-19.929 44.517-44.512 44.517v2zm46.512-46.517c0-25.69-20.824-46.517-46.512-46.517v2c24.583 0 44.512 19.931 44.512 44.517h2zm-46.512-46.517c-25.688 0-46.512 20.827-46.512 46.517h2c0-24.586 19.929-44.517 44.512-44.517v-2zm-46.512 46.517c0 25.691 20.824 46.517 46.512 46.517v-2c-24.583 0-44.512-19.931-44.512-44.517h-2z" fill="#D9D9D9"/><path clip-rule="evenodd" d="M308 183c5.523 0 10-4.477 10-10s-4.477-10-10-10-10 4.477-10 10 4.477 10 10 10z" stroke="#EEE" stroke-width="2"/><path clip-rule="evenodd" d="M6 133a5 5 0 100-10 5 5 0 000 10z" stroke="#D9D9D9" stroke-width="2"/><path fill-rule="evenodd" clip-rule="evenodd" d="M44 189a3 3 0 100-6 3 3 0 000 6zM147 12a6 6 0 100-12 6 6 0 000 12z" fill="#EEE"/><path clip-rule="evenodd" d="M60.188 74.812L53 72l7.188-2.812L63 62l2.812 7.188L73 72l-7.188 2.812L63 82l-2.812-7.188z" stroke="#EEE" stroke-width="2" stroke-linejoin="round"/><path clip-rule="evenodd" d="M246.391 131.609L241 129.5l5.391-2.109L248.5 122l2.109 5.391L256 129.5l-5.391 2.109L248.5 137l-2.109-5.391z" stroke="#D9D9D9" stroke-width="2" stroke-linejoin="round"/></svg>